<svg width="21" height="19" viewBox="0 0 21 19" fill="none" xmlns="http://www.w3.org/2000/svg">
<path fill-rule="evenodd" clip-rule="evenodd" d="M6.75 3.75C6.75 1.67893 8.42893 0 10.5 0C12.5711 0 14.25 1.67893 14.25 3.75C14.25 5.82107 12.5711 7.5 10.5 7.5C8.42893 7.5 6.75 5.82107 6.75 3.75Z" fill="#5700FF"/>
<path fill-rule="evenodd" clip-rule="evenodd" d="M14.25 6.75C14.25 5.09315 15.5931 3.75 17.25 3.75C18.9069 3.75 20.25 5.09315 20.25 6.75C20.25 8.40685 18.9069 9.75 17.25 9.75C15.5931 9.75 14.25 8.40685 14.25 6.75Z" fill="#5700FF"/>
<path fill-rule="evenodd" clip-rule="evenodd" d="M0.75 6.75C0.75 5.09315 2.09315 3.75 3.75 3.75C5.40685 3.75 6.75 5.09315 6.75 6.75C6.75 8.40685 5.40685 9.75 3.75 9.75C2.09315 9.75 0.75 8.40685 0.75 6.75Z" fill="#5700FF"/>
<path fill-rule="evenodd" clip-rule="evenodd" d="M4.80986 12.1175C6.00783 10.2444 8.10835 9 10.5 9C12.8919 9 14.9927 10.2447 16.1906 12.1182C17.0187 13.4134 17.377 14.9752 17.209 16.4979C17.1827 16.7359 17.0444 16.947 16.8368 17.0662C14.9694 18.1376 12.8051 18.75 10.5 18.75C8.19492 18.75 6.03059 18.1376 4.16325 17.0662C3.95559 16.947 3.8173 16.7359 3.79103 16.4979C3.62293 14.9749 3.98141 13.4129 4.80986 12.1175Z" fill="#5700FF"/>
<path d="M3.58228 11.2537C3.57024 11.2722 3.55827 11.2907 3.54638 11.3093C2.58091 12.8189 2.13908 14.6167 2.27471 16.389C1.66667 16.2967 1.0767 16.1481 0.510428 15.9487L0.39547 15.9082C0.185759 15.8343 0.0392274 15.6439 0.021591 15.4222L0.0119231 15.3007C0.00401714 15.2014 0 15.1011 0 15C0 12.9851 1.58905 11.3414 3.58228 11.2537Z" fill="#5700FF"/>
<path d="M18.7256 16.389C18.8612 14.617 18.4196 12.8196 17.4545 11.3102C17.4424 11.2913 17.4303 11.2725 17.4181 11.2537C19.4111 11.3416 21 12.9853 21 15C21 15.1011 20.996 15.2014 20.9881 15.3007L20.9784 15.4222C20.9608 15.6439 20.8142 15.8343 20.6045 15.9082L20.4896 15.9487C19.9234 16.1481 19.3336 16.2966 18.7256 16.389Z" fill="#5700FF"/>
</svg>
