<svg width="77" height="77" viewBox="0 0 77 77" fill="none" xmlns="http://www.w3.org/2000/svg">
<g filter="url(#filter0_i_25_3104)">
<rect width="77" height="77" rx="8" fill="#5700FF"/>
<path d="M44.2043 56.6346L41.6566 47.1263M41.6566 47.1263L36.9514 51.2988L38.0172 33.5429L47.8181 48.3871L41.6566 47.1263ZM27.5619 46.6256C21.521 40.5846 21.521 30.7904 27.5619 24.7494C33.6029 18.7085 43.3971 18.7085 49.4381 24.7494C52.4584 27.7698 53.9687 31.7285 53.9688 35.6872M31.5394 42.6481C27.6952 38.8039 27.6952 32.5711 31.5394 28.7269C35.3836 24.8827 41.6164 24.8827 45.4606 28.7269C47.3827 30.649 48.3437 33.1682 48.3438 35.6874" stroke="#FDFDFC" stroke-width="2" stroke-linecap="round" stroke-linejoin="round"/>
</g>
<defs>
<filter id="filter0_i_25_3104" x="0" y="0" width="77" height="77" filterUnits="userSpaceOnUse" color-interpolation-filters="sRGB">
<feFlood flood-opacity="0" result="BackgroundImageFix"/>
<feBlend mode="normal" in="SourceGraphic" in2="BackgroundImageFix" result="shape"/>
<feColorMatrix in="SourceAlpha" type="matrix" values="0 0 0 0 0 0 0 0 0 0 0 0 0 0 0 0 0 0 127 0" result="hardAlpha"/>
<feMorphology radius="4" operator="erode" in="SourceAlpha" result="effect1_innerShadow_25_3104"/>
<feOffset/>
<feGaussianBlur stdDeviation="7"/>
<feComposite in2="hardAlpha" operator="arithmetic" k2="-1" k3="1"/>
<feColorMatrix type="matrix" values="0 0 0 0 1 0 0 0 0 1 0 0 0 0 1 0 0 0 0.5 0"/>
<feBlend mode="normal" in2="shape" result="effect1_innerShadow_25_3104"/>
</filter>
</defs>
</svg>
