<svg width="77" height="77" viewBox="0 0 77 77" fill="none" xmlns="http://www.w3.org/2000/svg">
<g filter="url(#filter0_i_25_3048)">
<rect width="77" height="77" rx="8" fill="#5700FF"/>
<path d="M27.25 28.8963V27.25C27.25 24.92 29.1388 23.0312 31.4688 23.0312H45.5312C47.8612 23.0312 49.75 24.92 49.75 27.25V28.8963M27.25 28.8963C27.6898 28.7408 28.1632 28.6562 28.6562 28.6562H48.3438C48.8368 28.6562 49.3102 28.7408 49.75 28.8963M27.25 28.8963C25.6114 29.4754 24.4375 31.0381 24.4375 32.875V34.5213M49.75 28.8963C51.3886 29.4754 52.5625 31.0381 52.5625 32.875V34.5213M52.5625 34.5213C52.1227 34.3658 51.6493 34.2812 51.1562 34.2812H25.8438C25.3507 34.2812 24.8773 34.3658 24.4375 34.5213M52.5625 34.5213C54.2011 35.1005 55.375 36.6631 55.375 38.5V49.75C55.375 52.08 53.4862 53.9688 51.1562 53.9688H25.8438C23.5138 53.9688 21.625 52.08 21.625 49.75V38.5C21.625 36.6631 22.7989 35.1005 24.4375 34.5213" stroke="#FDFDFC" stroke-width="2" stroke-linecap="round" stroke-linejoin="round"/>
</g>
<defs>
<filter id="filter0_i_25_3048" x="0" y="0" width="77" height="77" filterUnits="userSpaceOnUse" color-interpolation-filters="sRGB">
<feFlood flood-opacity="0" result="BackgroundImageFix"/>
<feBlend mode="normal" in="SourceGraphic" in2="BackgroundImageFix" result="shape"/>
<feColorMatrix in="SourceAlpha" type="matrix" values="0 0 0 0 0 0 0 0 0 0 0 0 0 0 0 0 0 0 127 0" result="hardAlpha"/>
<feMorphology radius="4" operator="erode" in="SourceAlpha" result="effect1_innerShadow_25_3048"/>
<feOffset/>
<feGaussianBlur stdDeviation="7"/>
<feComposite in2="hardAlpha" operator="arithmetic" k2="-1" k3="1"/>
<feColorMatrix type="matrix" values="0 0 0 0 1 0 0 0 0 1 0 0 0 0 1 0 0 0 0.5 0"/>
<feBlend mode="normal" in2="shape" result="effect1_innerShadow_25_3048"/>
</filter>
</defs>
</svg>
