<svg width="77" height="77" viewBox="0 0 77 77" fill="none" xmlns="http://www.w3.org/2000/svg">
<g filter="url(#filter0_i_25_3087)">
<rect width="77" height="77" rx="8" fill="#5700FF"/>
<path d="M44.125 51.8642C45.6868 52.3188 47.3383 52.5625 49.0468 52.5625C51.8195 52.5625 54.4422 51.9205 56.7745 50.7772C56.7789 50.6697 56.7812 50.5617 56.7812 50.4531C56.7812 46.1815 53.3184 42.7188 49.0468 42.7188C46.388 42.7188 44.0425 44.0603 42.6504 46.1035M44.125 51.8642V51.8594C44.125 49.7727 43.5903 47.8109 42.6504 46.1035M44.125 51.8642C44.125 51.931 44.1244 51.9978 44.1233 52.0644C40.6325 54.1661 36.5434 55.375 32.1719 55.375C27.8004 55.375 23.7112 54.1661 20.2205 52.0644C20.2193 51.9962 20.2188 51.9278 20.2188 51.8594C20.2188 45.2578 25.5703 39.9062 32.1719 39.9062C36.6867 39.9062 40.6169 42.4094 42.6504 46.1035M38.5 27.9531C38.5 31.4481 35.6668 34.2812 32.1719 34.2812C28.6769 34.2812 25.8438 31.4481 25.8438 27.9531C25.8438 24.4582 28.6769 21.625 32.1719 21.625C35.6668 21.625 38.5 24.4582 38.5 27.9531ZM53.9688 32.1719C53.9688 34.8902 51.7652 37.0938 49.0469 37.0938C46.3286 37.0938 44.125 34.8902 44.125 32.1719C44.125 29.4536 46.3286 27.25 49.0469 27.25C51.7652 27.25 53.9688 29.4536 53.9688 32.1719Z" stroke="#FDFDFC" stroke-width="2" stroke-linecap="round" stroke-linejoin="round"/>
</g>
<defs>
<filter id="filter0_i_25_3087" x="0" y="0" width="77" height="77" filterUnits="userSpaceOnUse" color-interpolation-filters="sRGB">
<feFlood flood-opacity="0" result="BackgroundImageFix"/>
<feBlend mode="normal" in="SourceGraphic" in2="BackgroundImageFix" result="shape"/>
<feColorMatrix in="SourceAlpha" type="matrix" values="0 0 0 0 0 0 0 0 0 0 0 0 0 0 0 0 0 0 127 0" result="hardAlpha"/>
<feMorphology radius="4" operator="erode" in="SourceAlpha" result="effect1_innerShadow_25_3087"/>
<feOffset/>
<feGaussianBlur stdDeviation="7"/>
<feComposite in2="hardAlpha" operator="arithmetic" k2="-1" k3="1"/>
<feColorMatrix type="matrix" values="0 0 0 0 1 0 0 0 0 1 0 0 0 0 1 0 0 0 0.5 0"/>
<feBlend mode="normal" in2="shape" result="effect1_innerShadow_25_3087"/>
</filter>
</defs>
</svg>
